<?xml version="1.0" encoding="UTF-8" standalone="no"?>
<!-- Created with Inkscape (http://www.inkscape.org/) -->

<svg
   version="1.1"
   id="svg1"
   width="1048.0149"
   height="1364.0067"
   viewBox="0 0 1048.0149 1364.0067"
   sodipodi:docname="sp-01.png"
   xmlns:inkscape="http://www.inkscape.org/namespaces/inkscape"
   xmlns:sodipodi="http://sodipodi.sourceforge.net/DTD/sodipodi-0.dtd"
   xmlns="http://www.w3.org/2000/svg"
   xmlns:svg="http://www.w3.org/2000/svg">
  <defs
     id="defs1" />
  <sodipodi:namedview
     id="namedview1"
     pagecolor="#ffffff"
     bordercolor="#000000"
     borderopacity="0.25"
     inkscape:showpageshadow="2"
     inkscape:pageopacity="0.0"
     inkscape:pagecheckerboard="0"
     inkscape:deskcolor="#d1d1d1"
     showgrid="false">
    <inkscape:page
       x="0"
       y="0"
       width="1048.0149"
       height="1364.0067"
       id="page2"
       margin="0"
       bleed="0" />
  </sodipodi:namedview>
  <g
     inkscape:groupmode="layer"
     inkscape:label="Image"
     id="g1"
     transform="translate(-7.5691112,-6.1241155)">
    <rect
       style="fill:#242423;fill-opacity:1"
       id="rect21"
       width="89.035217"
       height="55.588123"
       x="127.42871"
       y="6.1241155"
       ry="14.332648" />
    <rect
       style="fill:#242423;fill-opacity:1"
       id="rect22"
       width="89.035217"
       height="55.588123"
       x="287.42871"
       y="6.1241155"
       ry="14.332648" />
    <path
       d="m 265.67578,35.570312 c -26.01113,0 -46.95117,20.940041 -46.95117,46.951172 V 1323.1777 c 0,26.0112 20.94004,46.9532 46.95117,46.9532 h 688.62109 c 26.01114,0 46.95113,-20.942 46.95113,-46.9532 v -172.5371 h 35.5274 c 10.4196,0 18.8086,-8.387 18.8086,-18.8066 V 962.07812 c 0,-10.41961 -8.389,-18.80664 -18.8086,-18.80664 H 1001.248 V 417.82812 h 31.793 c 12.4891,0 22.543,-10.05586 22.543,-22.54492 V 191.81445 c 0,-12.48906 -10.0539,-22.54297 -22.543,-22.54297 h -31.793 V 82.521484 c 0,-26.011131 -20.93999,-46.951172 -46.95113,-46.951172 z"
       style="fill:#fef7e9"
       id="path22" />
    <rect
       style="fill:#fef7e9;fill-opacity:1"
       id="rect20"
       width="61.585041"
       height="124.54628"
       x="7.5691113"
       y="227.41739"
       ry="18.807964" />
    <rect
       style="fill:#dfdfe1;fill-opacity:1"
       id="rect1"
       width="782.52496"
       height="1334.5608"
       x="32.723774"
       y="35.569317"
       ry="46.9515" />
    <path
       sodipodi:type="star"
       style="display:inline;fill:#fd4816;fill-opacity:1"
       id="path2"
       inkscape:flatsided="false"
       sodipodi:sides="3"
       sodipodi:cx="899.19232"
       sodipodi:cy="298.78226"
       sodipodi:r1="52.661812"
       sodipodi:r2="26.330906"
       sodipodi:arg1="-1.5707963"
       sodipodi:arg2="-0.52359878"
       inkscape:rounded="0"
       inkscape:randomized="0"
       d="m 899.19232,246.12045 22.80324,39.49635 22.80323,39.49636 -45.60647,0 -45.60647,0 22.80324,-39.49636 z"
       inkscape:transform-center-y="-14.247654"
       transform="matrix(1.0503656,0,0,1.0822006,-42.035495,-25.541781)"
       inkscape:transform-center-x="-1.5866174e-05" />
    <circle
       style="fill:#242423;fill-opacity:1;stroke-width:1.10894"
       id="path3"
       cx="908.38074"
       cy="1012.1696"
       r="25.502172" />
    <circle
       style="fill:#242423;fill-opacity:1;stroke-width:1.10894"
       id="circle3"
       cx="908.38074"
       cy="1082.5458"
       r="25.502172" />
    <rect
       style="fill:#242423;fill-opacity:1;stroke-width:0.997549"
       id="rect3"
       width="62.981659"
       height="306.80798"
       x="124.80391"
       y="452.63367"
       ry="31.336679" />
    <circle
       style="fill:#ffffff;fill-opacity:1"
       id="path6"
       cx="156.29474"
       cy="870.06409"
       r="19.421074" />
    <rect
       style="fill:#9b939b;fill-opacity:1;stroke-width:0.975909"
       id="rect6"
       width="65.569252"
       height="141.96533"
       x="123.51012"
       y="982.01831"
       ry="11.25932" />
    <rect
       style="fill:#242423;fill-opacity:1;stroke-width:0.997549"
       id="rect10"
       width="62.981659"
       height="306.80798"
       x="304.80389"
       y="452.63367"
       ry="31.336679" />
    <circle
       style="fill:#ffffff;fill-opacity:1"
       id="circle10"
       cx="336.29474"
       cy="870.06409"
       r="19.421074" />
    <rect
       style="fill:#9b939b;fill-opacity:1;stroke-width:0.975909"
       id="rect11"
       width="65.569252"
       height="141.96533"
       x="303.51013"
       y="982.01831"
       ry="11.25932" />
    <rect
       style="fill:#242423;fill-opacity:1;stroke-width:0.997549"
       id="rect12"
       width="62.981659"
       height="306.80798"
       x="484.80389"
       y="452.63367"
       ry="31.336679" />
    <circle
       style="fill:#ffffff;fill-opacity:1"
       id="circle12"
       cx="516.29474"
       cy="870.06409"
       r="19.421074" />
    <rect
       style="fill:#9b939b;fill-opacity:1;stroke-width:0.975909"
       id="rect13"
       width="65.569252"
       height="141.96533"
       x="483.51013"
       y="982.01831"
       ry="11.25932" />
    <rect
       style="fill:#242423;fill-opacity:1;stroke-width:0.997549"
       id="rect14"
       width="62.981659"
       height="306.80798"
       x="664.80389"
       y="452.63367"
       ry="31.336679" />
    <circle
       style="fill:#ffffff;fill-opacity:1"
       id="circle14"
       cx="696.29474"
       cy="870.06409"
       r="19.421074" />
    <rect
       style="fill:#9b939b;fill-opacity:1;stroke-width:0.975909"
       id="rect15"
       width="65.569252"
       height="141.96533"
       x="663.51013"
       y="982.01831"
       ry="11.25932" />
    <circle
       style="fill:#dfdfe1;fill-opacity:1"
       id="circle15"
       cx="156.29474"
       cy="484.06409"
       r="19.421074" />
    <circle
       style="fill:#dfdfe1;fill-opacity:1"
       id="circle16"
       cx="336.29474"
       cy="644.06409"
       r="19.421074" />
    <circle
       style="fill:#dfdfe1;fill-opacity:1"
       id="circle17"
       cx="516.29474"
       cy="564.06409"
       r="19.421074" />
    <circle
       style="fill:#dfdfe1;fill-opacity:1"
       id="circle18"
       cx="696.29474"
       cy="726.06409"
       r="19.421074" />
  </g>
</svg>
